# xmcd CD database file
#
# Track frame offsets:
#	150
#	16810
#	34020
#	54365
#	72047
#	85998
#	110524
#	123725
#	142626
#	154365
#	171822
#
# Disc length: 2484 seconds
#
# Revision: 0
# Processed by: cddbd v1.5.2PL0 Copyright (c) Steve Scherf et al.
# Submitted via: jetAudio 7
#
DISCID=8809b20b
DTITLE=Brian James - Chateau Brian   Grand Cru
DYEAR=1900
DGENRE=Blues
TTITLE0=Tipitina's
TTITLE1=Treat A Lady
TTITLE2=Moan, Moan, Moan
TTITLE3=Somethin' Floatin
TTITLE4=Starin' At Me
TTITLE5=Such A Lot Of Stars
TTITLE6=Mango
TTITLE7=Crawlin' My Way Back Home
TTITLE8=No Place Like Home
TTITLE9=Teasin' Me
TTITLE10=Paul's Friend
EXTD=
EXTT0=Blues Rock
EXTT1=Blues Rock
EXTT2=Blues Rock
EXTT3=Blues Rock
EXTT4=Blues Rock
EXTT5=Blues Rock
EXTT6=Blues Rock
EXTT7=Blues Rock
EXTT8=Blues Rock
EXTT9=Blues Rock
EXTT10=Blues Rock
PLAYORDER=
